<?xml version="1.0" encoding="UTF-8"?>
<svg xmlns="http://www.w3.org/2000/svg" xmlns:xlink="http://www.w3.org/1999/xlink" width="36px" height="22px" viewBox="0 0 35 22" version="1.1">
<g id="surface1">
<path style=" stroke:none;fill-rule:nonzero;fill:rgb(0%,0%,10.196079%);fill-opacity:1;" d="M 12.394531 21.558594 C 12.5625 21.558594 12.703125 21.507812 12.808594 21.40625 C 12.914062 21.304688 12.964844 21.15625 12.964844 20.960938 L 12.964844 19.957031 C 12.964844 19.710938 12.984375 19.496094 13.019531 19.3125 C 13.054688 19.125 13.097656 18.945312 13.148438 18.773438 L 15.886719 8.804688 L 18.484375 19.019531 C 18.542969 19.230469 18.589844 19.394531 18.613281 19.511719 L 18.628906 19.566406 C 18.652344 19.683594 18.664062 19.816406 18.664062 19.957031 L 18.664062 20.960938 C 18.664062 21.15625 18.71875 21.304688 18.824219 21.40625 C 18.929688 21.507812 19.066406 21.558594 19.238281 21.558594 L 24.996094 21.558594 C 25.160156 21.558594 25.292969 21.507812 25.40625 21.40625 C 25.515625 21.304688 25.570312 21.15625 25.570312 20.960938 L 25.570312 19.957031 C 25.570312 19.753906 25.582031 19.570312 25.609375 19.410156 C 25.632812 19.253906 25.679688 19.039062 25.75 18.773438 L 29.097656 3.972656 C 29.257812 3.285156 29.511719 2.734375 29.851562 2.316406 C 30.195312 1.902344 30.585938 1.597656 31.027344 1.402344 L 31.390625 1.230469 C 31.570312 1.140625 31.699219 1.050781 31.773438 0.960938 C 31.851562 0.875 31.886719 0.757812 31.886719 0.617188 C 31.886719 0.429688 31.824219 0.28125 31.699219 0.167969 C 31.574219 0.0585938 31.386719 0 31.132812 0 L 26.339844 0 C 26.089844 0 25.898438 0.0585938 25.773438 0.167969 C 25.648438 0.28125 25.585938 0.429688 25.585938 0.617188 C 25.585938 0.757812 25.617188 0.875 25.683594 0.960938 C 25.75 1.050781 25.851562 1.128906 25.992188 1.203125 L 26.324219 1.324219 C 26.925781 1.550781 27.332031 1.875 27.539062 2.292969 C 27.746094 2.714844 27.78125 3.207031 27.652344 3.773438 L 24.671875 16.691406 L 21.183594 2.496094 C 21.113281 2.175781 21.089844 1.933594 21.125 1.773438 L 21.136719 1.71875 C 21.1875 1.558594 21.308594 1.449219 21.5 1.386719 L 22.164062 1.203125 C 22.324219 1.140625 22.441406 1.058594 22.515625 0.960938 C 22.59375 0.863281 22.632812 0.742188 22.628906 0.617188 C 22.628906 0.421875 22.570312 0.269531 22.449219 0.160156 C 22.328125 0.0546875 22.144531 0 21.890625 0 L 13.34375 0 C 13.101562 0 12.917969 0.0546875 12.792969 0.160156 C 12.667969 0.269531 12.605469 0.421875 12.605469 0.617188 C 12.605469 0.738281 12.636719 0.84375 12.703125 0.933594 C 12.765625 1.019531 12.875 1.09375 13.027344 1.15625 L 13.660156 1.386719 C 13.800781 1.4375 13.910156 1.519531 13.984375 1.632812 C 14.058594 1.746094 14.140625 1.964844 14.234375 2.292969 L 15.175781 6.003906 L 12.183594 16.714844 L 8.683594 2.464844 C 8.605469 2.195312 8.578125 1.96875 8.609375 1.792969 L 8.625 1.71875 C 8.675781 1.527344 8.800781 1.402344 9 1.339844 L 9.785156 1.15625 C 10.054688 1.0625 10.191406 0.878906 10.191406 0.601562 C 10.191406 0.414062 10.132812 0.269531 10.011719 0.160156 C 9.890625 0.0546875 9.703125 0 9.453125 0 L 0.722656 0 C 0.484375 0 0.300781 0.0546875 0.179688 0.160156 C 0.0585938 0.269531 0 0.414062 0 0.601562 C 0 0.722656 0.03125 0.839844 0.0898438 0.945312 C 0.152344 1.054688 0.246094 1.140625 0.375 1.203125 L 1.039062 1.417969 C 1.230469 1.488281 1.375 1.585938 1.476562 1.710938 C 1.578125 1.832031 1.664062 2.027344 1.734375 2.292969 L 5.957031 19.019531 C 6.015625 19.253906 6.058594 19.433594 6.082031 19.550781 C 6.109375 19.667969 6.121094 19.804688 6.121094 19.957031 L 6.121094 20.960938 C 6.121094 21.15625 6.175781 21.304688 6.285156 21.40625 C 6.398438 21.507812 6.539062 21.558594 6.710938 21.558594 Z M 31.132812 21.945312 C 31.777344 21.945312 32.351562 21.785156 32.859375 21.46875 C 33.363281 21.152344 33.78125 20.710938 34.066406 20.183594 C 34.363281 19.644531 34.511719 19.058594 34.511719 18.433594 C 34.511719 17.796875 34.363281 17.21875 34.066406 16.695312 C 33.777344 16.175781 33.359375 15.746094 32.859375 15.4375 C 32.351562 15.125 31.777344 14.96875 31.132812 14.96875 C 30.511719 14.96875 29.945312 15.125 29.4375 15.4375 C 28.9375 15.746094 28.523438 16.175781 28.230469 16.695312 C 27.933594 17.21875 27.785156 17.796875 27.785156 18.433594 C 27.785156 19.058594 27.933594 19.644531 28.230469 20.183594 C 28.527344 20.71875 28.929688 21.148438 29.4375 21.46875 C 29.945312 21.785156 30.511719 21.945312 31.132812 21.945312 Z M 31.132812 21.945312 "/>
</g>
</svg>
